<?xml version="1.0" encoding="utf-8" standalone="no"?>
<!DOCTYPE svg PUBLIC "-//W3C//DTD SVG 1.1//EN"
  "http://www.w3.org/Graphics/SVG/1.1/DTD/svg11.dtd">
<svg xmlns:xlink="http://www.w3.org/1999/xlink" width="460.8pt" height="345.6pt" viewBox="0 0 460.8 345.6" xmlns="http://www.w3.org/2000/svg" version="1.1">
 <metadata>
  <rdf:RDF xmlns:dc="http://purl.org/dc/elements/1.1/" xmlns:cc="http://creativecommons.org/ns#" xmlns:rdf="http://www.w3.org/1999/02/22-rdf-syntax-ns#">
   <cc:Work>
    <dc:type rdf:resource="http://purl.org/dc/dcmitype/StillImage"/>
    <dc:date>2025-10-13T22:08:25.806091</dc:date>
    <dc:format>image/svg+xml</dc:format>
    <dc:creator>
     <cc:Agent>
      <dc:title>Matplotlib v3.10.6, https://matplotlib.org/</dc:title>
     </cc:Agent>
    </dc:creator>
   </cc:Work>
  </rdf:RDF>
 </metadata>
 <defs>
  <style type="text/css">*{stroke-linejoin: round; stroke-linecap: butt}</style>
 </defs>
 <g id="figure_1">
  <g id="patch_1">
   <path d="M 0 345.6
L 460.8 345.6
L 460.8 0
L 0 0
L 0 345.6
z
" style="fill: none; opacity: 0"/>
  </g>
  <g id="axes_1">
   <g id="patch_2">
    <path d="M 51.05 242.777481
L 450 242.777481
L 450 10.8
L 51.05 10.8
L 51.05 242.777481
z
" style="fill: none; opacity: 0"/>
   </g>
   <g id="patch_3">
    <path d="M 69.184091 242.777481
L 88.788514 242.777481
L 88.788514 21.846547
L 69.184091 21.846547
z
" clip-path="url(#p1052f499ae)" style="fill: #006ba4"/>
   </g>
   <g id="patch_4">
    <path d="M 93.689619 242.777481
L 113.294042 242.777481
L 113.294042 84.1604
L 93.689619 84.1604
z
" clip-path="url(#p1052f499ae)" style="fill: #006ba4"/>
   </g>
   <g id="patch_5">
    <path d="M 118.195147 242.777481
L 137.79957 242.777481
L 137.79957 87.936997
L 118.195147 87.936997
z
" clip-path="url(#p1052f499ae)" style="fill: #006ba4"/>
   </g>
   <g id="patch_6">
    <path d="M 142.700676 242.777481
L 162.305098 242.777481
L 162.305098 91.713594
L 142.700676 91.713594
z
" clip-path="url(#p1052f499ae)" style="fill: #006ba4"/>
   </g>
   <g id="patch_7">
    <path d="M 167.206204 242.777481
L 186.810627 242.777481
L 186.810627 91.713594
L 167.206204 91.713594
z
" clip-path="url(#p1052f499ae)" style="fill: #006ba4"/>
   </g>
   <g id="patch_8">
    <path d="M 191.711732 242.777481
L 211.316155 242.777481
L 211.316155 95.490191
L 191.711732 95.490191
z
" clip-path="url(#p1052f499ae)" style="fill: #006ba4"/>
   </g>
   <g id="patch_9">
    <path d="M 216.21726 242.777481
L 235.821683 242.777481
L 235.821683 97.37849
L 216.21726 97.37849
z
" clip-path="url(#p1052f499ae)" style="fill: #006ba4"/>
   </g>
   <g id="patch_10">
    <path d="M 240.722789 242.777481
L 260.327211 242.777481
L 260.327211 97.37849
L 240.722789 97.37849
z
" clip-path="url(#p1052f499ae)" style="fill: #006ba4"/>
   </g>
   <g id="patch_11">
    <path d="M 265.228317 242.777481
L 284.83274 242.777481
L 284.83274 101.155087
L 265.228317 101.155087
z
" clip-path="url(#p1052f499ae)" style="fill: #006ba4"/>
   </g>
   <g id="patch_12">
    <path d="M 289.733845 242.777481
L 309.338268 242.777481
L 309.338268 163.46894
L 289.733845 163.46894
z
" clip-path="url(#p1052f499ae)" style="fill: #006ba4"/>
   </g>
   <g id="patch_13">
    <path d="M 314.239373 242.777481
L 333.843796 242.777481
L 333.843796 174.798732
L 314.239373 174.798732
z
" clip-path="url(#p1052f499ae)" style="fill: #006ba4"/>
   </g>
   <g id="patch_14">
    <path d="M 338.744902 242.777481
L 358.349324 242.777481
L 358.349324 218.229599
L 338.744902 218.229599
z
" clip-path="url(#p1052f499ae)" style="fill: #006ba4"/>
   </g>
   <g id="patch_15">
    <path d="M 363.25043 242.777481
L 382.854853 242.777481
L 382.854853 220.117898
L 363.25043 220.117898
z
" clip-path="url(#p1052f499ae)" style="fill: #006ba4"/>
   </g>
   <g id="patch_16">
    <path d="M 387.755958 242.777481
L 407.360381 242.777481
L 407.360381 222.006196
L 387.755958 222.006196
z
" clip-path="url(#p1052f499ae)" style="fill: #006ba4"/>
   </g>
   <g id="patch_17">
    <path d="M 412.261486 242.777481
L 431.865909 242.777481
L 431.865909 235.224286
L 412.261486 235.224286
z
" clip-path="url(#p1052f499ae)" style="fill: #006ba4"/>
   </g>
   <g id="matplotlib.axis_1">
    <g id="xtick_1">
     <g id="line2d_1">
      <defs>
       <path id="m83501a4ca8" d="M 0 0
L 0 3.5
" style="stroke: #000000; stroke-width: 0.8"/>
      </defs>
      <g>
       <use xlink:href="#m83501a4ca8" x="78.986302" y="242.777481" style="stroke: #000000; stroke-width: 0.8"/>
      </g>
     </g>
     <g id="text_1">
      <!-- osd -->
      <g transform="translate(65.016524 267.649605) rotate(-45) scale(0.1 -0.1)">
       <defs>
        <path id="DejaVuSans-6f" d="M 1959 3097
Q 1497 3097 1228 2736
Q 959 2375 959 1747
Q 959 1119 1226 758
Q 1494 397 1959 397
Q 2419 397 2687 759
Q 2956 1122 2956 1747
Q 2956 2369 2687 2733
Q 2419 3097 1959 3097
z
M 1959 3584
Q 2709 3584 3137 3096
Q 3566 2609 3566 1747
Q 3566 888 3137 398
Q 2709 -91 1959 -91
Q 1206 -91 779 398
Q 353 888 353 1747
Q 353 2609 779 3096
Q 1206 3584 1959 3584
z
" transform="scale(0.015625)"/>
        <path id="DejaVuSans-73" d="M 2834 3397
L 2834 2853
Q 2591 2978 2328 3040
Q 2066 3103 1784 3103
Q 1356 3103 1142 2972
Q 928 2841 928 2578
Q 928 2378 1081 2264
Q 1234 2150 1697 2047
L 1894 2003
Q 2506 1872 2764 1633
Q 3022 1394 3022 966
Q 3022 478 2636 193
Q 2250 -91 1575 -91
Q 1294 -91 989 -36
Q 684 19 347 128
L 347 722
Q 666 556 975 473
Q 1284 391 1588 391
Q 1994 391 2212 530
Q 2431 669 2431 922
Q 2431 1156 2273 1281
Q 2116 1406 1581 1522
L 1381 1569
Q 847 1681 609 1914
Q 372 2147 372 2553
Q 372 3047 722 3315
Q 1072 3584 1716 3584
Q 2034 3584 2315 3537
Q 2597 3491 2834 3397
z
" transform="scale(0.015625)"/>
        <path id="DejaVuSans-64" d="M 2906 2969
L 2906 4863
L 3481 4863
L 3481 0
L 2906 0
L 2906 525
Q 2725 213 2448 61
Q 2172 -91 1784 -91
Q 1150 -91 751 415
Q 353 922 353 1747
Q 353 2572 751 3078
Q 1150 3584 1784 3584
Q 2172 3584 2448 3432
Q 2725 3281 2906 2969
z
M 947 1747
Q 947 1113 1208 752
Q 1469 391 1925 391
Q 2381 391 2643 752
Q 2906 1113 2906 1747
Q 2906 2381 2643 2742
Q 2381 3103 1925 3103
Q 1469 3103 1208 2742
Q 947 2381 947 1747
z
" transform="scale(0.015625)"/>
       </defs>
       <use xlink:href="#DejaVuSans-6f"/>
       <use xlink:href="#DejaVuSans-73" transform="translate(61.181641 0)"/>
       <use xlink:href="#DejaVuSans-64" transform="translate(113.28125 0)"/>
      </g>
     </g>
    </g>
    <g id="xtick_2">
     <g id="line2d_2">
      <g>
       <use xlink:href="#m83501a4ca8" x="103.49183" y="242.777481" style="stroke: #000000; stroke-width: 0.8"/>
      </g>
     </g>
     <g id="text_2">
      <!-- osd / mon -->
      <g transform="translate(66.949878 290.221779) rotate(-45) scale(0.1 -0.1)">
       <defs>
        <path id="DejaVuSans-20" transform="scale(0.015625)"/>
        <path id="DejaVuSans-2f" d="M 1625 4666
L 2156 4666
L 531 -594
L 0 -594
L 1625 4666
z
" transform="scale(0.015625)"/>
        <path id="DejaVuSans-6d" d="M 3328 2828
Q 3544 3216 3844 3400
Q 4144 3584 4550 3584
Q 5097 3584 5394 3201
Q 5691 2819 5691 2113
L 5691 0
L 5113 0
L 5113 2094
Q 5113 2597 4934 2840
Q 4756 3084 4391 3084
Q 3944 3084 3684 2787
Q 3425 2491 3425 1978
L 3425 0
L 2847 0
L 2847 2094
Q 2847 2600 2669 2842
Q 2491 3084 2119 3084
Q 1678 3084 1418 2786
Q 1159 2488 1159 1978
L 1159 0
L 581 0
L 581 3500
L 1159 3500
L 1159 2956
Q 1356 3278 1631 3431
Q 1906 3584 2284 3584
Q 2666 3584 2933 3390
Q 3200 3197 3328 2828
z
" transform="scale(0.015625)"/>
        <path id="DejaVuSans-6e" d="M 3513 2113
L 3513 0
L 2938 0
L 2938 2094
Q 2938 2591 2744 2837
Q 2550 3084 2163 3084
Q 1697 3084 1428 2787
Q 1159 2491 1159 1978
L 1159 0
L 581 0
L 581 3500
L 1159 3500
L 1159 2956
Q 1366 3272 1645 3428
Q 1925 3584 2291 3584
Q 2894 3584 3203 3211
Q 3513 2838 3513 2113
z
" transform="scale(0.015625)"/>
       </defs>
       <use xlink:href="#DejaVuSans-6f"/>
       <use xlink:href="#DejaVuSans-73" transform="translate(61.181641 0)"/>
       <use xlink:href="#DejaVuSans-64" transform="translate(113.28125 0)"/>
       <use xlink:href="#DejaVuSans-20" transform="translate(176.757812 0)"/>
       <use xlink:href="#DejaVuSans-2f" transform="translate(208.544922 0)"/>
       <use xlink:href="#DejaVuSans-20" transform="translate(242.236328 0)"/>
       <use xlink:href="#DejaVuSans-6d" transform="translate(274.023438 0)"/>
       <use xlink:href="#DejaVuSans-6f" transform="translate(371.435547 0)"/>
       <use xlink:href="#DejaVuSans-6e" transform="translate(432.617188 0)"/>
      </g>
     </g>
    </g>
    <g id="xtick_3">
     <g id="line2d_3">
      <g>
       <use xlink:href="#m83501a4ca8" x="127.997359" y="242.777481" style="stroke: #000000; stroke-width: 0.8"/>
      </g>
     </g>
     <g id="text_3">
      <!-- osd / mgr -->
      <g transform="translate(92.86741 288.809775) rotate(-45) scale(0.1 -0.1)">
       <defs>
        <path id="DejaVuSans-67" d="M 2906 1791
Q 2906 2416 2648 2759
Q 2391 3103 1925 3103
Q 1463 3103 1205 2759
Q 947 2416 947 1791
Q 947 1169 1205 825
Q 1463 481 1925 481
Q 2391 481 2648 825
Q 2906 1169 2906 1791
z
M 3481 434
Q 3481 -459 3084 -895
Q 2688 -1331 1869 -1331
Q 1566 -1331 1297 -1286
Q 1028 -1241 775 -1147
L 775 -588
Q 1028 -725 1275 -790
Q 1522 -856 1778 -856
Q 2344 -856 2625 -561
Q 2906 -266 2906 331
L 2906 616
Q 2728 306 2450 153
Q 2172 0 1784 0
Q 1141 0 747 490
Q 353 981 353 1791
Q 353 2603 747 3093
Q 1141 3584 1784 3584
Q 2172 3584 2450 3431
Q 2728 3278 2906 2969
L 2906 3500
L 3481 3500
L 3481 434
z
" transform="scale(0.015625)"/>
        <path id="DejaVuSans-72" d="M 2631 2963
Q 2534 3019 2420 3045
Q 2306 3072 2169 3072
Q 1681 3072 1420 2755
Q 1159 2438 1159 1844
L 1159 0
L 581 0
L 581 3500
L 1159 3500
L 1159 2956
Q 1341 3275 1631 3429
Q 1922 3584 2338 3584
Q 2397 3584 2469 3576
Q 2541 3569 2628 3553
L 2631 2963
z
" transform="scale(0.015625)"/>
       </defs>
       <use xlink:href="#DejaVuSans-6f"/>
       <use xlink:href="#DejaVuSans-73" transform="translate(61.181641 0)"/>
       <use xlink:href="#DejaVuSans-64" transform="translate(113.28125 0)"/>
       <use xlink:href="#DejaVuSans-20" transform="translate(176.757812 0)"/>
       <use xlink:href="#DejaVuSans-2f" transform="translate(208.544922 0)"/>
       <use xlink:href="#DejaVuSans-20" transform="translate(242.236328 0)"/>
       <use xlink:href="#DejaVuSans-6d" transform="translate(274.023438 0)"/>
       <use xlink:href="#DejaVuSans-67" transform="translate(371.435547 0)"/>
       <use xlink:href="#DejaVuSans-72" transform="translate(434.912109 0)"/>
      </g>
     </g>
    </g>
    <g id="xtick_4">
     <g id="line2d_4">
      <g>
       <use xlink:href="#m83501a4ca8" x="152.502887" y="242.777481" style="stroke: #000000; stroke-width: 0.8"/>
      </g>
     </g>
     <g id="text_4">
      <!-- mds -->
      <g transform="translate(135.972056 270.210657) rotate(-45) scale(0.1 -0.1)">
       <use xlink:href="#DejaVuSans-6d"/>
       <use xlink:href="#DejaVuSans-64" transform="translate(97.412109 0)"/>
       <use xlink:href="#DejaVuSans-73" transform="translate(160.888672 0)"/>
      </g>
     </g>
    </g>
    <g id="xtick_5">
     <g id="line2d_5">
      <g>
       <use xlink:href="#m83501a4ca8" x="177.008415" y="242.777481" style="stroke: #000000; stroke-width: 0.8"/>
      </g>
     </g>
     <g id="text_5">
      <!-- osd / mds -->
      <g transform="translate(141.101754 289.586488) rotate(-45) scale(0.1 -0.1)">
       <use xlink:href="#DejaVuSans-6f"/>
       <use xlink:href="#DejaVuSans-73" transform="translate(61.181641 0)"/>
       <use xlink:href="#DejaVuSans-64" transform="translate(113.28125 0)"/>
       <use xlink:href="#DejaVuSans-20" transform="translate(176.757812 0)"/>
       <use xlink:href="#DejaVuSans-2f" transform="translate(208.544922 0)"/>
       <use xlink:href="#DejaVuSans-20" transform="translate(242.236328 0)"/>
       <use xlink:href="#DejaVuSans-6d" transform="translate(274.023438 0)"/>
       <use xlink:href="#DejaVuSans-64" transform="translate(371.435547 0)"/>
       <use xlink:href="#DejaVuSans-73" transform="translate(434.912109 0)"/>
      </g>
     </g>
    </g>
    <g id="xtick_6">
     <g id="line2d_6">
      <g>
       <use xlink:href="#m83501a4ca8" x="201.513943" y="242.777481" style="stroke: #000000; stroke-width: 0.8"/>
      </g>
     </g>
     <g id="text_6">
      <!-- osd / mon / mgr -->
      <g transform="translate(143.81182 311.381949) rotate(-45) scale(0.1 -0.1)">
       <use xlink:href="#DejaVuSans-6f"/>
       <use xlink:href="#DejaVuSans-73" transform="translate(61.181641 0)"/>
       <use xlink:href="#DejaVuSans-64" transform="translate(113.28125 0)"/>
       <use xlink:href="#DejaVuSans-20" transform="translate(176.757812 0)"/>
       <use xlink:href="#DejaVuSans-2f" transform="translate(208.544922 0)"/>
       <use xlink:href="#DejaVuSans-20" transform="translate(242.236328 0)"/>
       <use xlink:href="#DejaVuSans-6d" transform="translate(274.023438 0)"/>
       <use xlink:href="#DejaVuSans-6f" transform="translate(371.435547 0)"/>
       <use xlink:href="#DejaVuSans-6e" transform="translate(432.617188 0)"/>
       <use xlink:href="#DejaVuSans-20" transform="translate(495.996094 0)"/>
       <use xlink:href="#DejaVuSans-2f" transform="translate(527.783203 0)"/>
       <use xlink:href="#DejaVuSans-20" transform="translate(561.474609 0)"/>
       <use xlink:href="#DejaVuSans-6d" transform="translate(593.261719 0)"/>
       <use xlink:href="#DejaVuSans-67" transform="translate(690.673828 0)"/>
       <use xlink:href="#DejaVuSans-72" transform="translate(754.150391 0)"/>
      </g>
     </g>
    </g>
    <g id="xtick_7">
     <g id="line2d_7">
      <g>
       <use xlink:href="#m83501a4ca8" x="226.019472" y="242.777481" style="stroke: #000000; stroke-width: 0.8"/>
      </g>
     </g>
     <g id="text_7">
      <!-- osd / mon / mds -->
      <g transform="translate(167.540636 312.158662) rotate(-45) scale(0.1 -0.1)">
       <use xlink:href="#DejaVuSans-6f"/>
       <use xlink:href="#DejaVuSans-73" transform="translate(61.181641 0)"/>
       <use xlink:href="#DejaVuSans-64" transform="translate(113.28125 0)"/>
       <use xlink:href="#DejaVuSans-20" transform="translate(176.757812 0)"/>
       <use xlink:href="#DejaVuSans-2f" transform="translate(208.544922 0)"/>
       <use xlink:href="#DejaVuSans-20" transform="translate(242.236328 0)"/>
       <use xlink:href="#DejaVuSans-6d" transform="translate(274.023438 0)"/>
       <use xlink:href="#DejaVuSans-6f" transform="translate(371.435547 0)"/>
       <use xlink:href="#DejaVuSans-6e" transform="translate(432.617188 0)"/>
       <use xlink:href="#DejaVuSans-20" transform="translate(495.996094 0)"/>
       <use xlink:href="#DejaVuSans-2f" transform="translate(527.783203 0)"/>
       <use xlink:href="#DejaVuSans-20" transform="translate(561.474609 0)"/>
       <use xlink:href="#DejaVuSans-6d" transform="translate(593.261719 0)"/>
       <use xlink:href="#DejaVuSans-64" transform="translate(690.673828 0)"/>
       <use xlink:href="#DejaVuSans-73" transform="translate(754.150391 0)"/>
      </g>
     </g>
    </g>
    <g id="xtick_8">
     <g id="line2d_8">
      <g>
       <use xlink:href="#m83501a4ca8" x="250.525" y="242.777481" style="stroke: #000000; stroke-width: 0.8"/>
      </g>
     </g>
     <g id="text_8">
      <!-- osd / mgr / mds -->
      <g transform="translate(193.458168 310.746658) rotate(-45) scale(0.1 -0.1)">
       <use xlink:href="#DejaVuSans-6f"/>
       <use xlink:href="#DejaVuSans-73" transform="translate(61.181641 0)"/>
       <use xlink:href="#DejaVuSans-64" transform="translate(113.28125 0)"/>
       <use xlink:href="#DejaVuSans-20" transform="translate(176.757812 0)"/>
       <use xlink:href="#DejaVuSans-2f" transform="translate(208.544922 0)"/>
       <use xlink:href="#DejaVuSans-20" transform="translate(242.236328 0)"/>
       <use xlink:href="#DejaVuSans-6d" transform="translate(274.023438 0)"/>
       <use xlink:href="#DejaVuSans-67" transform="translate(371.435547 0)"/>
       <use xlink:href="#DejaVuSans-72" transform="translate(434.912109 0)"/>
       <use xlink:href="#DejaVuSans-20" transform="translate(476.025391 0)"/>
       <use xlink:href="#DejaVuSans-2f" transform="translate(507.8125 0)"/>
       <use xlink:href="#DejaVuSans-20" transform="translate(541.503906 0)"/>
       <use xlink:href="#DejaVuSans-6d" transform="translate(573.291016 0)"/>
       <use xlink:href="#DejaVuSans-64" transform="translate(670.703125 0)"/>
       <use xlink:href="#DejaVuSans-73" transform="translate(734.179688 0)"/>
      </g>
     </g>
    </g>
    <g id="xtick_9">
     <g id="line2d_9">
      <g>
       <use xlink:href="#m83501a4ca8" x="275.030528" y="242.777481" style="stroke: #000000; stroke-width: 0.8"/>
      </g>
     </g>
     <g id="text_9">
      <!-- osd / mon / mgr / mds -->
      <g transform="translate(195.391522 333.318832) rotate(-45) scale(0.1 -0.1)">
       <use xlink:href="#DejaVuSans-6f"/>
       <use xlink:href="#DejaVuSans-73" transform="translate(61.181641 0)"/>
       <use xlink:href="#DejaVuSans-64" transform="translate(113.28125 0)"/>
       <use xlink:href="#DejaVuSans-20" transform="translate(176.757812 0)"/>
       <use xlink:href="#DejaVuSans-2f" transform="translate(208.544922 0)"/>
       <use xlink:href="#DejaVuSans-20" transform="translate(242.236328 0)"/>
       <use xlink:href="#DejaVuSans-6d" transform="translate(274.023438 0)"/>
       <use xlink:href="#DejaVuSans-6f" transform="translate(371.435547 0)"/>
       <use xlink:href="#DejaVuSans-6e" transform="translate(432.617188 0)"/>
       <use xlink:href="#DejaVuSans-20" transform="translate(495.996094 0)"/>
       <use xlink:href="#DejaVuSans-2f" transform="translate(527.783203 0)"/>
       <use xlink:href="#DejaVuSans-20" transform="translate(561.474609 0)"/>
       <use xlink:href="#DejaVuSans-6d" transform="translate(593.261719 0)"/>
       <use xlink:href="#DejaVuSans-67" transform="translate(690.673828 0)"/>
       <use xlink:href="#DejaVuSans-72" transform="translate(754.150391 0)"/>
       <use xlink:href="#DejaVuSans-20" transform="translate(795.263672 0)"/>
       <use xlink:href="#DejaVuSans-2f" transform="translate(827.050781 0)"/>
       <use xlink:href="#DejaVuSans-20" transform="translate(860.742188 0)"/>
       <use xlink:href="#DejaVuSans-6d" transform="translate(892.529297 0)"/>
       <use xlink:href="#DejaVuSans-64" transform="translate(989.941406 0)"/>
       <use xlink:href="#DejaVuSans-73" transform="translate(1053.417969 0)"/>
      </g>
     </g>
    </g>
    <g id="xtick_10">
     <g id="line2d_10">
      <g>
       <use xlink:href="#m83501a4ca8" x="299.536057" y="242.777481" style="stroke: #000000; stroke-width: 0.8"/>
      </g>
     </g>
     <g id="text_10">
      <!-- mon -->
      <g transform="translate(282.369935 270.845948) rotate(-45) scale(0.1 -0.1)">
       <use xlink:href="#DejaVuSans-6d"/>
       <use xlink:href="#DejaVuSans-6f" transform="translate(97.412109 0)"/>
       <use xlink:href="#DejaVuSans-6e" transform="translate(158.59375 0)"/>
      </g>
     </g>
    </g>
    <g id="xtick_11">
     <g id="line2d_11">
      <g>
       <use xlink:href="#m83501a4ca8" x="324.041585" y="242.777481" style="stroke: #000000; stroke-width: 0.8"/>
      </g>
     </g>
     <g id="text_11">
      <!-- mgr -->
      <g transform="translate(308.287467 269.433944) rotate(-45) scale(0.1 -0.1)">
       <use xlink:href="#DejaVuSans-6d"/>
       <use xlink:href="#DejaVuSans-67" transform="translate(97.412109 0)"/>
       <use xlink:href="#DejaVuSans-72" transform="translate(160.888672 0)"/>
      </g>
     </g>
    </g>
    <g id="xtick_12">
     <g id="line2d_12">
      <g>
       <use xlink:href="#m83501a4ca8" x="348.547113" y="242.777481" style="stroke: #000000; stroke-width: 0.8"/>
      </g>
     </g>
     <g id="text_12">
      <!-- mon / mgr -->
      <g transform="translate(310.220821 292.006119) rotate(-45) scale(0.1 -0.1)">
       <use xlink:href="#DejaVuSans-6d"/>
       <use xlink:href="#DejaVuSans-6f" transform="translate(97.412109 0)"/>
       <use xlink:href="#DejaVuSans-6e" transform="translate(158.59375 0)"/>
       <use xlink:href="#DejaVuSans-20" transform="translate(221.972656 0)"/>
       <use xlink:href="#DejaVuSans-2f" transform="translate(253.759766 0)"/>
       <use xlink:href="#DejaVuSans-20" transform="translate(287.451172 0)"/>
       <use xlink:href="#DejaVuSans-6d" transform="translate(319.238281 0)"/>
       <use xlink:href="#DejaVuSans-67" transform="translate(416.650391 0)"/>
       <use xlink:href="#DejaVuSans-72" transform="translate(480.126953 0)"/>
      </g>
     </g>
    </g>
    <g id="xtick_13">
     <g id="line2d_13">
      <g>
       <use xlink:href="#m83501a4ca8" x="373.052641" y="242.777481" style="stroke: #000000; stroke-width: 0.8"/>
      </g>
     </g>
     <g id="text_13">
      <!-- mon / mds -->
      <g transform="translate(333.949636 292.782831) rotate(-45) scale(0.1 -0.1)">
       <use xlink:href="#DejaVuSans-6d"/>
       <use xlink:href="#DejaVuSans-6f" transform="translate(97.412109 0)"/>
       <use xlink:href="#DejaVuSans-6e" transform="translate(158.59375 0)"/>
       <use xlink:href="#DejaVuSans-20" transform="translate(221.972656 0)"/>
       <use xlink:href="#DejaVuSans-2f" transform="translate(253.759766 0)"/>
       <use xlink:href="#DejaVuSans-20" transform="translate(287.451172 0)"/>
       <use xlink:href="#DejaVuSans-6d" transform="translate(319.238281 0)"/>
       <use xlink:href="#DejaVuSans-64" transform="translate(416.650391 0)"/>
       <use xlink:href="#DejaVuSans-73" transform="translate(480.126953 0)"/>
      </g>
     </g>
    </g>
    <g id="xtick_14">
     <g id="line2d_14">
      <g>
       <use xlink:href="#m83501a4ca8" x="397.55817" y="242.777481" style="stroke: #000000; stroke-width: 0.8"/>
      </g>
     </g>
     <g id="text_14">
      <!-- mon / mgr / mds -->
      <g transform="translate(337.294994 313.943002) rotate(-45) scale(0.1 -0.1)">
       <use xlink:href="#DejaVuSans-6d"/>
       <use xlink:href="#DejaVuSans-6f" transform="translate(97.412109 0)"/>
       <use xlink:href="#DejaVuSans-6e" transform="translate(158.59375 0)"/>
       <use xlink:href="#DejaVuSans-20" transform="translate(221.972656 0)"/>
       <use xlink:href="#DejaVuSans-2f" transform="translate(253.759766 0)"/>
       <use xlink:href="#DejaVuSans-20" transform="translate(287.451172 0)"/>
       <use xlink:href="#DejaVuSans-6d" transform="translate(319.238281 0)"/>
       <use xlink:href="#DejaVuSans-67" transform="translate(416.650391 0)"/>
       <use xlink:href="#DejaVuSans-72" transform="translate(480.126953 0)"/>
       <use xlink:href="#DejaVuSans-20" transform="translate(521.240234 0)"/>
       <use xlink:href="#DejaVuSans-2f" transform="translate(553.027344 0)"/>
       <use xlink:href="#DejaVuSans-20" transform="translate(586.71875 0)"/>
       <use xlink:href="#DejaVuSans-6d" transform="translate(618.505859 0)"/>
       <use xlink:href="#DejaVuSans-64" transform="translate(715.917969 0)"/>
       <use xlink:href="#DejaVuSans-73" transform="translate(779.394531 0)"/>
      </g>
     </g>
    </g>
    <g id="xtick_15">
     <g id="line2d_15">
      <g>
       <use xlink:href="#m83501a4ca8" x="422.063698" y="242.777481" style="stroke: #000000; stroke-width: 0.8"/>
      </g>
     </g>
     <g id="text_15">
      <!-- mgr / mds -->
      <g transform="translate(384.372697 291.370827) rotate(-45) scale(0.1 -0.1)">
       <use xlink:href="#DejaVuSans-6d"/>
       <use xlink:href="#DejaVuSans-67" transform="translate(97.412109 0)"/>
       <use xlink:href="#DejaVuSans-72" transform="translate(160.888672 0)"/>
       <use xlink:href="#DejaVuSans-20" transform="translate(202.001953 0)"/>
       <use xlink:href="#DejaVuSans-2f" transform="translate(233.789062 0)"/>
       <use xlink:href="#DejaVuSans-20" transform="translate(267.480469 0)"/>
       <use xlink:href="#DejaVuSans-6d" transform="translate(299.267578 0)"/>
       <use xlink:href="#DejaVuSans-64" transform="translate(396.679688 0)"/>
       <use xlink:href="#DejaVuSans-73" transform="translate(460.15625 0)"/>
      </g>
     </g>
    </g>
   </g>
   <g id="matplotlib.axis_2">
    <g id="ytick_1">
     <g id="line2d_16">
      <defs>
       <path id="m0762253fbf" d="M 0 0
L -3.5 0
" style="stroke: #000000; stroke-width: 0.8"/>
      </defs>
      <g>
       <use xlink:href="#m0762253fbf" x="51.05" y="242.777481" style="stroke: #000000; stroke-width: 0.8"/>
      </g>
     </g>
     <g id="text_16">
      <!-- 0 -->
      <g transform="translate(37.6875 246.576699) scale(0.1 -0.1)">
       <defs>
        <path id="DejaVuSans-30" d="M 2034 4250
Q 1547 4250 1301 3770
Q 1056 3291 1056 2328
Q 1056 1369 1301 889
Q 1547 409 2034 409
Q 2525 409 2770 889
Q 3016 1369 3016 2328
Q 3016 3291 2770 3770
Q 2525 4250 2034 4250
z
M 2034 4750
Q 2819 4750 3233 4129
Q 3647 3509 3647 2328
Q 3647 1150 3233 529
Q 2819 -91 2034 -91
Q 1250 -91 836 529
Q 422 1150 422 2328
Q 422 3509 836 4129
Q 1250 4750 2034 4750
z
" transform="scale(0.015625)"/>
       </defs>
       <use xlink:href="#DejaVuSans-30"/>
      </g>
     </g>
    </g>
    <g id="ytick_2">
     <g id="line2d_17">
      <g>
       <use xlink:href="#m0762253fbf" x="51.05" y="205.011509" style="stroke: #000000; stroke-width: 0.8"/>
      </g>
     </g>
     <g id="text_17">
      <!-- 20 -->
      <g transform="translate(31.325 208.810728) scale(0.1 -0.1)">
       <defs>
        <path id="DejaVuSans-32" d="M 1228 531
L 3431 531
L 3431 0
L 469 0
L 469 531
Q 828 903 1448 1529
Q 2069 2156 2228 2338
Q 2531 2678 2651 2914
Q 2772 3150 2772 3378
Q 2772 3750 2511 3984
Q 2250 4219 1831 4219
Q 1534 4219 1204 4116
Q 875 4013 500 3803
L 500 4441
Q 881 4594 1212 4672
Q 1544 4750 1819 4750
Q 2544 4750 2975 4387
Q 3406 4025 3406 3419
Q 3406 3131 3298 2873
Q 3191 2616 2906 2266
Q 2828 2175 2409 1742
Q 1991 1309 1228 531
z
" transform="scale(0.015625)"/>
       </defs>
       <use xlink:href="#DejaVuSans-32"/>
       <use xlink:href="#DejaVuSans-30" transform="translate(63.623047 0)"/>
      </g>
     </g>
    </g>
    <g id="ytick_3">
     <g id="line2d_18">
      <g>
       <use xlink:href="#m0762253fbf" x="51.05" y="167.245537" style="stroke: #000000; stroke-width: 0.8"/>
      </g>
     </g>
     <g id="text_18">
      <!-- 40 -->
      <g transform="translate(31.325 171.044756) scale(0.1 -0.1)">
       <defs>
        <path id="DejaVuSans-34" d="M 2419 4116
L 825 1625
L 2419 1625
L 2419 4116
z
M 2253 4666
L 3047 4666
L 3047 1625
L 3713 1625
L 3713 1100
L 3047 1100
L 3047 0
L 2419 0
L 2419 1100
L 313 1100
L 313 1709
L 2253 4666
z
" transform="scale(0.015625)"/>
       </defs>
       <use xlink:href="#DejaVuSans-34"/>
       <use xlink:href="#DejaVuSans-30" transform="translate(63.623047 0)"/>
      </g>
     </g>
    </g>
    <g id="ytick_4">
     <g id="line2d_19">
      <g>
       <use xlink:href="#m0762253fbf" x="51.05" y="129.479566" style="stroke: #000000; stroke-width: 0.8"/>
      </g>
     </g>
     <g id="text_19">
      <!-- 60 -->
      <g transform="translate(31.325 133.278785) scale(0.1 -0.1)">
       <defs>
        <path id="DejaVuSans-36" d="M 2113 2584
Q 1688 2584 1439 2293
Q 1191 2003 1191 1497
Q 1191 994 1439 701
Q 1688 409 2113 409
Q 2538 409 2786 701
Q 3034 994 3034 1497
Q 3034 2003 2786 2293
Q 2538 2584 2113 2584
z
M 3366 4563
L 3366 3988
Q 3128 4100 2886 4159
Q 2644 4219 2406 4219
Q 1781 4219 1451 3797
Q 1122 3375 1075 2522
Q 1259 2794 1537 2939
Q 1816 3084 2150 3084
Q 2853 3084 3261 2657
Q 3669 2231 3669 1497
Q 3669 778 3244 343
Q 2819 -91 2113 -91
Q 1303 -91 875 529
Q 447 1150 447 2328
Q 447 3434 972 4092
Q 1497 4750 2381 4750
Q 2619 4750 2861 4703
Q 3103 4656 3366 4563
z
" transform="scale(0.015625)"/>
       </defs>
       <use xlink:href="#DejaVuSans-36"/>
       <use xlink:href="#DejaVuSans-30" transform="translate(63.623047 0)"/>
      </g>
     </g>
    </g>
    <g id="ytick_5">
     <g id="line2d_20">
      <g>
       <use xlink:href="#m0762253fbf" x="51.05" y="91.713594" style="stroke: #000000; stroke-width: 0.8"/>
      </g>
     </g>
     <g id="text_20">
      <!-- 80 -->
      <g transform="translate(31.325 95.512813) scale(0.1 -0.1)">
       <defs>
        <path id="DejaVuSans-38" d="M 2034 2216
Q 1584 2216 1326 1975
Q 1069 1734 1069 1313
Q 1069 891 1326 650
Q 1584 409 2034 409
Q 2484 409 2743 651
Q 3003 894 3003 1313
Q 3003 1734 2745 1975
Q 2488 2216 2034 2216
z
M 1403 2484
Q 997 2584 770 2862
Q 544 3141 544 3541
Q 544 4100 942 4425
Q 1341 4750 2034 4750
Q 2731 4750 3128 4425
Q 3525 4100 3525 3541
Q 3525 3141 3298 2862
Q 3072 2584 2669 2484
Q 3125 2378 3379 2068
Q 3634 1759 3634 1313
Q 3634 634 3220 271
Q 2806 -91 2034 -91
Q 1263 -91 848 271
Q 434 634 434 1313
Q 434 1759 690 2068
Q 947 2378 1403 2484
z
M 1172 3481
Q 1172 3119 1398 2916
Q 1625 2713 2034 2713
Q 2441 2713 2670 2916
Q 2900 3119 2900 3481
Q 2900 3844 2670 4047
Q 2441 4250 2034 4250
Q 1625 4250 1398 4047
Q 1172 3844 1172 3481
z
" transform="scale(0.015625)"/>
       </defs>
       <use xlink:href="#DejaVuSans-38"/>
       <use xlink:href="#DejaVuSans-30" transform="translate(63.623047 0)"/>
      </g>
     </g>
    </g>
    <g id="ytick_6">
     <g id="line2d_21">
      <g>
       <use xlink:href="#m0762253fbf" x="51.05" y="53.947623" style="stroke: #000000; stroke-width: 0.8"/>
      </g>
     </g>
     <g id="text_21">
      <!-- 100 -->
      <g transform="translate(24.9625 57.746841) scale(0.1 -0.1)">
       <defs>
        <path id="DejaVuSans-31" d="M 794 531
L 1825 531
L 1825 4091
L 703 3866
L 703 4441
L 1819 4666
L 2450 4666
L 2450 531
L 3481 531
L 3481 0
L 794 0
L 794 531
z
" transform="scale(0.015625)"/>
       </defs>
       <use xlink:href="#DejaVuSans-31"/>
       <use xlink:href="#DejaVuSans-30" transform="translate(63.623047 0)"/>
       <use xlink:href="#DejaVuSans-30" transform="translate(127.246094 0)"/>
      </g>
     </g>
    </g>
    <g id="ytick_7">
     <g id="line2d_22">
      <g>
       <use xlink:href="#m0762253fbf" x="51.05" y="16.181651" style="stroke: #000000; stroke-width: 0.8"/>
      </g>
     </g>
     <g id="text_22">
      <!-- 120 -->
      <g transform="translate(24.9625 19.98087) scale(0.1 -0.1)">
       <use xlink:href="#DejaVuSans-31"/>
       <use xlink:href="#DejaVuSans-32" transform="translate(63.623047 0)"/>
       <use xlink:href="#DejaVuSans-30" transform="translate(127.246094 0)"/>
      </g>
     </g>
    </g>
    <g id="text_23">
     <!-- Items in exact combination -->
     <g transform="translate(18.882812 194.874678) rotate(-90) scale(0.1 -0.1)">
      <defs>
       <path id="DejaVuSans-49" d="M 628 4666
L 1259 4666
L 1259 0
L 628 0
L 628 4666
z
" transform="scale(0.015625)"/>
       <path id="DejaVuSans-74" d="M 1172 4494
L 1172 3500
L 2356 3500
L 2356 3053
L 1172 3053
L 1172 1153
Q 1172 725 1289 603
Q 1406 481 1766 481
L 2356 481
L 2356 0
L 1766 0
Q 1100 0 847 248
Q 594 497 594 1153
L 594 3053
L 172 3053
L 172 3500
L 594 3500
L 594 4494
L 1172 4494
z
" transform="scale(0.015625)"/>
       <path id="DejaVuSans-65" d="M 3597 1894
L 3597 1613
L 953 1613
Q 991 1019 1311 708
Q 1631 397 2203 397
Q 2534 397 2845 478
Q 3156 559 3463 722
L 3463 178
Q 3153 47 2828 -22
Q 2503 -91 2169 -91
Q 1331 -91 842 396
Q 353 884 353 1716
Q 353 2575 817 3079
Q 1281 3584 2069 3584
Q 2775 3584 3186 3129
Q 3597 2675 3597 1894
z
M 3022 2063
Q 3016 2534 2758 2815
Q 2500 3097 2075 3097
Q 1594 3097 1305 2825
Q 1016 2553 972 2059
L 3022 2063
z
" transform="scale(0.015625)"/>
       <path id="DejaVuSans-69" d="M 603 3500
L 1178 3500
L 1178 0
L 603 0
L 603 3500
z
M 603 4863
L 1178 4863
L 1178 4134
L 603 4134
L 603 4863
z
" transform="scale(0.015625)"/>
       <path id="DejaVuSans-78" d="M 3513 3500
L 2247 1797
L 3578 0
L 2900 0
L 1881 1375
L 863 0
L 184 0
L 1544 1831
L 300 3500
L 978 3500
L 1906 2253
L 2834 3500
L 3513 3500
z
" transform="scale(0.015625)"/>
       <path id="DejaVuSans-61" d="M 2194 1759
Q 1497 1759 1228 1600
Q 959 1441 959 1056
Q 959 750 1161 570
Q 1363 391 1709 391
Q 2188 391 2477 730
Q 2766 1069 2766 1631
L 2766 1759
L 2194 1759
z
M 3341 1997
L 3341 0
L 2766 0
L 2766 531
Q 2569 213 2275 61
Q 1981 -91 1556 -91
Q 1019 -91 701 211
Q 384 513 384 1019
Q 384 1609 779 1909
Q 1175 2209 1959 2209
L 2766 2209
L 2766 2266
Q 2766 2663 2505 2880
Q 2244 3097 1772 3097
Q 1472 3097 1187 3025
Q 903 2953 641 2809
L 641 3341
Q 956 3463 1253 3523
Q 1550 3584 1831 3584
Q 2591 3584 2966 3190
Q 3341 2797 3341 1997
z
" transform="scale(0.015625)"/>
       <path id="DejaVuSans-63" d="M 3122 3366
L 3122 2828
Q 2878 2963 2633 3030
Q 2388 3097 2138 3097
Q 1578 3097 1268 2742
Q 959 2388 959 1747
Q 959 1106 1268 751
Q 1578 397 2138 397
Q 2388 397 2633 464
Q 2878 531 3122 666
L 3122 134
Q 2881 22 2623 -34
Q 2366 -91 2075 -91
Q 1284 -91 818 406
Q 353 903 353 1747
Q 353 2603 823 3093
Q 1294 3584 2113 3584
Q 2378 3584 2631 3529
Q 2884 3475 3122 3366
z
" transform="scale(0.015625)"/>
       <path id="DejaVuSans-62" d="M 3116 1747
Q 3116 2381 2855 2742
Q 2594 3103 2138 3103
Q 1681 3103 1420 2742
Q 1159 2381 1159 1747
Q 1159 1113 1420 752
Q 1681 391 2138 391
Q 2594 391 2855 752
Q 3116 1113 3116 1747
z
M 1159 2969
Q 1341 3281 1617 3432
Q 1894 3584 2278 3584
Q 2916 3584 3314 3078
Q 3713 2572 3713 1747
Q 3713 922 3314 415
Q 2916 -91 2278 -91
Q 1894 -91 1617 61
Q 1341 213 1159 525
L 1159 0
L 581 0
L 581 4863
L 1159 4863
L 1159 2969
z
" transform="scale(0.015625)"/>
      </defs>
      <use xlink:href="#DejaVuSans-49"/>
      <use xlink:href="#DejaVuSans-74" transform="translate(29.492188 0)"/>
      <use xlink:href="#DejaVuSans-65" transform="translate(68.701172 0)"/>
      <use xlink:href="#DejaVuSans-6d" transform="translate(130.224609 0)"/>
      <use xlink:href="#DejaVuSans-73" transform="translate(227.636719 0)"/>
      <use xlink:href="#DejaVuSans-20" transform="translate(279.736328 0)"/>
      <use xlink:href="#DejaVuSans-69" transform="translate(311.523438 0)"/>
      <use xlink:href="#DejaVuSans-6e" transform="translate(339.306641 0)"/>
      <use xlink:href="#DejaVuSans-20" transform="translate(402.685547 0)"/>
      <use xlink:href="#DejaVuSans-65" transform="translate(434.472656 0)"/>
      <use xlink:href="#DejaVuSans-78" transform="translate(494.246094 0)"/>
      <use xlink:href="#DejaVuSans-61" transform="translate(553.425781 0)"/>
      <use xlink:href="#DejaVuSans-63" transform="translate(614.705078 0)"/>
      <use xlink:href="#DejaVuSans-74" transform="translate(669.685547 0)"/>
      <use xlink:href="#DejaVuSans-20" transform="translate(708.894531 0)"/>
      <use xlink:href="#DejaVuSans-63" transform="translate(740.681641 0)"/>
      <use xlink:href="#DejaVuSans-6f" transform="translate(795.662109 0)"/>
      <use xlink:href="#DejaVuSans-6d" transform="translate(856.84375 0)"/>
      <use xlink:href="#DejaVuSans-62" transform="translate(954.255859 0)"/>
      <use xlink:href="#DejaVuSans-69" transform="translate(1017.732422 0)"/>
      <use xlink:href="#DejaVuSans-6e" transform="translate(1045.515625 0)"/>
      <use xlink:href="#DejaVuSans-61" transform="translate(1108.894531 0)"/>
      <use xlink:href="#DejaVuSans-74" transform="translate(1170.173828 0)"/>
      <use xlink:href="#DejaVuSans-69" transform="translate(1209.382812 0)"/>
      <use xlink:href="#DejaVuSans-6f" transform="translate(1237.166016 0)"/>
      <use xlink:href="#DejaVuSans-6e" transform="translate(1298.347656 0)"/>
     </g>
    </g>
   </g>
   <g id="patch_18">
    <path d="M 51.05 242.777481
L 51.05 10.8
" style="fill: none; stroke: #000000; stroke-width: 0.8; stroke-linejoin: miter; stroke-linecap: square"/>
   </g>
   <g id="patch_19">
    <path d="M 450 242.777481
L 450 10.8
" style="fill: none; stroke: #000000; stroke-width: 0.8; stroke-linejoin: miter; stroke-linecap: square"/>
   </g>
   <g id="patch_20">
    <path d="M 51.05 242.777481
L 450 242.777481
" style="fill: none; stroke: #000000; stroke-width: 0.8; stroke-linejoin: miter; stroke-linecap: square"/>
   </g>
   <g id="patch_21">
    <path d="M 51.05 10.8
L 450 10.8
" style="fill: none; stroke: #000000; stroke-width: 0.8; stroke-linejoin: miter; stroke-linecap: square"/>
   </g>
  </g>
 </g>
 <defs>
  <clipPath id="p1052f499ae">
   <rect x="51.05" y="10.8" width="398.95" height="231.977481"/>
  </clipPath>
 </defs>
</svg>
